<svg xmlns="http://www.w3.org/2000/svg" xml:space="preserve" viewBox="0 0 1127 750"><path d="M60.056 430.609c-16.045-8.728-26.946-25.737-26.946-45.273 0-28.423 23.077-51.5 51.5-51.5h47v25h-47c-14.625 0-26.5 11.875-26.5 26.5 0 3.53.692 6.898 1.946 9.979zm42.025-18.773h29.529v25h-29.529z" style="fill:var(--logo-primary, #00bba7)"/><path d="M81.056 518.404c-8.278 0-15-6.721-15-15V389.009c0-8.279 6.722-15 15-15 8.279 0 15 6.721 15 15v114.395c0 8.279-6.721 15-15 15" style="fill:var(--logo-primary, #00bba7)"/><path d="m21.724 506.277 9.843-20.466c6.023-12.522 16.426-21.53 28.489-26.071v28.826c-2.411 2.231-4.45 4.943-5.959 8.08l-11.961 24.87-14.253 1.169.263-7.096-4.174 3.759.136-15.101zm68.896 38.597 11.976-24.902c3.861-8.026 3.377-17.027-.515-24.334v-33.494c24.927 12.802 35.262 43.261 23.045 68.664l-15.213 31.63-.644-.31 2.02-13.173-8.281 9.396.1-11.104-7.107 6.051z" style="fill:var(--logo-primary, #00bba7)"/><path d="M543.045 443.289c-36.932 17.374-82.368 10.809-112.873-19.696L123.921 117.342l35.355-35.356 306.252 306.252c19.357 19.357 50.788 19.357 70.145 0l12.083-12.083c-3.371 16.827-5.138 34.23-5.137 52.042 0 5.065.144 10.097.426 15.092m211.406-273.83 92.473-92.473 35.356 35.356-52.958 52.958c-7.536-.648-15.162-.978-22.864-.978-17.801.002-35.191 1.769-52.007 5.137" style="fill:var(--logo-secondary, #00bba7)"/><path d="M465.337 630.357h-15.235c3.359-3.759 5.402-8.718 5.402-14.151 0-11.728-9.522-21.25-21.25-21.25h-9.812c1.883-.566 3.879-.871 5.945-.872l39.027-.013c-8.949 4.044-14.175 13.928-11.992 23.903 1.124 5.139 4.024 9.434 7.915 12.383m59.894-48.972c-.243-.346-.488-.688-.738-1.028h5.434zm17.47 39.683c2.566 3.468 5.453 6.568 8.591 9.289h-17.677c.693-2.486 1.225-5.04 1.584-7.648zm-238.69 9.289H179.956c-36.756 0-67.239-27.076-72.572-62.354l8.156-2.859 15.213-31.63c13.419-27.901 2.55-61.247-24.197-76.058V135.757c0-40.51 32.89-73.4 73.4-73.4h648.2c40.511 0 73.4 32.89 73.4 73.4V182c-15.975-6.181-32.7-10.851-50-13.835v-32.408c0-12.915-10.485-23.4-23.4-23.4h-648.2c-12.915 0-23.4 10.485-23.4 23.4v421.2c0 12.915 10.485 23.4 23.4 23.4h83.809l-10.004 4.887 4.259 8.719-8.446 7.537 14.184-.215-1.811 2.154 17.47 11.007 24.038-11.743c-3.027 3.672-4.846 8.377-4.846 13.503 0 5.433 2.043 10.392 5.402 14.151m65.301-35.401-1.31-2.513c-2.327-4.464-5.161-8.505-8.395-12.086h23.891c-3.255 4.431-5.898 9.339-7.804 14.599zm263.412 31.732q2.1195 1.857 4.278 3.669h-9.537z" style="fill:var(--logo-secondary, #00bba7)"/><path d="M172.234 615.035c-9.757 9.756-25.599 9.756-35.355 0-9.757-9.757-9.757-25.599 0-35.356l240.142-240.142c9.757-9.757 25.599-9.757 35.355 0 9.757 9.756 9.757 25.599 0 35.355z" style="fill:var(--logo-secondary, #00bba7)"/><path d="M538.274 578.531c2.139-13.303 9.458-25.756 21.369-34.067l38.545-26.894 14.305 20.503-38.545 26.894c-2.894 2.019-5.261 4.514-7.069 7.305zm44.231 33.827c7.223 1.856 15.181.672 21.77-3.925l38.545-26.895 14.306 20.503-38.545 26.894c-22.126 15.438-52.198 11.069-69.106-9.35z" style="fill:var(--logo-primary, #00bba7)"/><path d="M808.458 182.321c136.521-.009 247.366 110.821 247.376 247.342.009 136.52-110.821 247.366-247.342 247.375-136.52.009-247.366-110.821-247.375-247.341-.009-136.521 110.821-247.366 247.341-247.376" style="fill:var(--logo-secondary, #00bba7)"/><path d="M947.392 225.035c65.429 44.524 108.436 119.592 108.442 204.628.009 136.52-110.821 247.366-247.342 247.375-105.858.007-196.279-66.627-231.56-160.207 43.238 47.033 105.264 76.526 174.124 76.526 130.528 0 236.5-105.972 236.5-236.5 0-48.789-14.805-94.146-40.164-131.822" style="fill:var(--logo-primary, #00bba7)"/><path d="M647.249 383.49c-2.731 7.571-11.096 11.501-18.667 8.769-7.571-2.731-11.5-11.095-8.769-18.666C648.5 294.07 720.889 237.11 805.493 228.431c8.006-.821 15.174 5.013 15.995 13.019.821 8.007-5.012 15.174-13.019 15.996-73.46 7.535-136.311 56.996-161.22 126.044" style="fill:var(--logo-highlight, #fff)"/><path d="M352.204 665.227c75.175-3.031 173.853-4.87 281.852-4.87 235.392 0 426.5 8.738 426.5 19.5s-191.108 19.5-426.5 19.5c-235.391 0-426.5-8.738-426.5-19.5 0-4.478 33.093-8.606 88.7-11.9l-.588 7.749-4.049 4.55 28.577-.433 1.369 1.752 20.406-9.969c3.694-1.804 7.111-3.95 10.233-6.379M604.585 585.774c1.77 8.088-3.359 16.09-11.447 17.86l-111.751 24.452c-8.088 1.769-16.09-3.36-17.86-11.448-1.769-8.087 3.36-16.09 11.447-17.859l111.752-24.452c8.087-1.769 16.09 3.36 17.859 11.447M449.254 615.206c0 8.279-6.721 15-15 15H319.859c-8.279 0-15-6.721-15-15 0-8.278 6.721-15 15-15h114.395c8.279 0 15 6.722 15 15" style="fill:var(--logo-primary, #00bba7)"/><path d="M362.262 594.956H327.79c-7.104-3.298-15.581-3.486-23.16.217l-24.827 12.129-8.458-5.329 6.007-7.145-11.102.169 9.344-8.338-13.16 2.101-.314-.643 31.536-15.407c25.199-12.31 55.541-2.327 68.606 22.246m-15.761 42.5h18.578c-4.48 12.043-13.407 22.455-25.852 28.535l-20.406 9.969 2.016-2.397-15.1.229 3.734-4.197-7.095.307 1.082-14.261 24.795-12.113c3.129-1.528 5.828-3.585 8.043-6.009zM487.392 589.664c-3.042-1.193-6.354-1.847-9.817-1.846l-47.19.016c-7.026.003-13.426 2.704-18.219 7.122h-29.77c7.784-18.839 26.343-32.114 47.98-32.122l47.19-.016c16.643-.006 31.47 7.838 40.976 20.03zm41.247 34.48c-4.434 24.152-25.609 42.482-51.036 42.491l-47.19.016c-20.512.008-38.266-11.91-46.7-29.195h32.255c4.173 2.658 9.126 4.197 14.436 4.195l47.19-.016c8.934-.003 16.855-4.369 21.748-11.08z" style="fill:var(--logo-primary, #00bba7)"/></svg>